<svg width="32" height="32" viewBox="0 0 32 32" fill="none" xmlns="http://www.w3.org/2000/svg">
<g clip-path="url(#clip0_966_5)">
<path d="M10.3343 6.656C10.2356 6.75868 10.155 6.87742 10.0961 7.00712L10.089 7L0.119194 29.4587L0.128971 29.4684C-0.0559175 29.8267 0.253416 30.5556 0.887194 31.1902C1.52097 31.824 2.24986 32.1333 2.60808 31.9484L2.61697 31.9573L25.0756 21.9867L25.0685 21.9787C25.1992 21.9164 25.3192 21.8409 25.4196 21.7396C26.8081 20.3511 24.5565 15.8489 20.3921 11.6836C16.2259 7.51823 11.7236 5.26756 10.3343 6.656Z" fill="#DD2E44"/>
<path d="M11.5556 10.6667L0.36986 28.8942L0.119194 29.4587L0.128971 29.4684C-0.0559175 29.8267 0.253416 30.5556 0.887194 31.1902C1.09342 31.3964 1.30764 31.5529 1.51742 31.6853L15.1112 15.1111L11.5556 10.6667Z" fill="#EA596E"/>
<path d="M20.455 11.6142C24.6061 15.7671 26.911 20.1938 25.6008 21.5022C24.2915 22.8124 19.8648 20.5084 15.711 16.3573C11.559 12.2044 9.25504 7.776 10.5644 6.46666C11.8746 5.15733 16.3013 7.46133 20.455 11.6142Z" fill="#A0041E"/>
<path d="M16.5245 12.0969C16.4338 12.1704 16.3295 12.2252 16.2174 12.258C16.1054 12.2908 15.988 12.301 15.872 12.288C15.1005 12.2045 14.4516 11.936 13.9974 11.512C13.5165 11.0631 13.2791 10.4605 13.344 9.85689C13.4578 8.79734 14.5209 7.82489 16.3334 8.02045C17.0382 8.09601 17.3529 7.86934 17.3636 7.76089C17.376 7.65334 17.1174 7.36445 16.4125 7.28801C15.6409 7.20445 14.992 6.93601 14.5369 6.51201C14.056 6.06312 13.8178 5.46045 13.8836 4.85689C13.9991 3.79734 15.0614 2.82489 16.872 3.02134C17.3858 3.07645 17.6569 2.97067 17.7716 2.90223C17.8631 2.84623 17.8996 2.79289 17.9031 2.76178C17.9138 2.65423 17.6587 2.36534 16.952 2.28889C16.8359 2.2765 16.7234 2.2413 16.6209 2.18531C16.5184 2.12933 16.428 2.05366 16.3548 1.96265C16.2817 1.87165 16.2272 1.76709 16.1945 1.65498C16.1618 1.54286 16.1516 1.42541 16.1645 1.30934C16.1768 1.19326 16.2119 1.08076 16.2677 0.978285C16.3236 0.875812 16.3992 0.78539 16.4902 0.712211C16.5811 0.639032 16.6856 0.584538 16.7976 0.551859C16.9097 0.51918 17.0271 0.508959 17.1431 0.521784C18.9538 0.71645 19.7858 1.89245 19.6711 2.95289C19.5556 4.01423 18.4934 4.98489 16.6809 4.79023C16.1671 4.73423 15.8987 4.84089 15.7831 4.90934C15.6916 4.96445 15.6542 5.01867 15.6507 5.04889C15.6391 5.15734 15.896 5.44534 16.6027 5.52178C18.4134 5.71734 19.2454 6.89245 19.1307 7.95289C19.016 9.01245 17.9538 9.98489 16.1422 9.78845C15.6285 9.73334 15.3582 9.84001 15.2427 9.90756C15.1502 9.96445 15.1147 10.0178 15.1111 10.048C15.0996 10.1556 15.3565 10.4445 16.0622 10.5209C16.237 10.5398 16.4023 10.61 16.5371 10.7228C16.672 10.8356 16.7703 10.9858 16.8198 11.1545C16.8693 11.3232 16.8676 11.5027 16.8151 11.6705C16.7625 11.8382 16.6614 11.9866 16.5245 12.0969Z" fill="#AA8DD8"/>
<path d="M27.2543 20.3173C29.0081 19.8222 30.2179 20.6044 30.5059 21.6311C30.7939 22.6569 30.1699 23.9556 28.417 24.4489C27.7325 24.6409 27.5272 24.968 27.5547 25.072C27.585 25.1769 27.9325 25.3493 28.6152 25.1564C30.3681 24.6631 31.5779 25.4453 31.8659 26.4711C32.1556 27.4978 31.5299 28.7947 29.7761 29.2889C29.0925 29.4809 28.8863 29.8089 28.9165 29.9129C28.9459 30.0169 29.2925 30.1893 29.9761 29.9973C30.0895 29.9623 30.2088 29.9503 30.3269 29.9621C30.445 29.9739 30.5596 30.0092 30.6638 30.066C30.768 30.1227 30.8599 30.1998 30.9338 30.2926C31.0078 30.3855 31.0624 30.4922 31.0945 30.6065C31.1265 30.7208 31.1354 30.8403 31.1205 30.9581C31.1056 31.0758 31.0673 31.1894 31.0078 31.2921C30.9483 31.3949 30.8688 31.4846 30.774 31.5561C30.6793 31.6276 30.5712 31.6794 30.4561 31.7084C28.7041 32.2018 27.4934 31.4213 27.2036 30.3938C26.9156 29.368 27.5405 28.0711 29.2952 27.5769C29.9796 27.384 30.185 27.0578 30.1547 26.9529C30.1263 26.8489 29.7796 26.6756 29.097 26.8676C27.3423 27.3618 26.1334 26.5813 25.8445 25.5529C25.5556 24.5271 26.1805 23.2302 27.9343 22.7351C28.617 22.544 28.8223 22.2151 28.7939 22.112C28.7636 22.0071 28.4179 21.8347 27.7343 22.0267C27.6201 22.0652 27.4992 22.08 27.379 22.0703C27.2588 22.0606 27.1419 22.0266 27.0353 21.9702C26.9287 21.9139 26.8347 21.8365 26.7589 21.7427C26.6832 21.6489 26.6273 21.5407 26.5947 21.4246C26.5621 21.3085 26.5535 21.187 26.5693 21.0675C26.5852 20.948 26.6252 20.833 26.6868 20.7294C26.7485 20.6258 26.8307 20.5359 26.9282 20.465C27.0258 20.3942 27.1367 20.3439 27.2543 20.3173Z" fill="#77B255"/>
<path d="M20.4454 17.92C20.2614 17.9197 20.0819 17.8624 19.9318 17.7559C19.7817 17.6494 19.6683 17.4989 19.6072 17.3253C19.5462 17.1516 19.5405 16.9633 19.591 16.7863C19.6414 16.6093 19.7456 16.4523 19.889 16.3369C20.0828 16.1813 24.705 12.5511 31.2374 13.4853C31.3556 13.4987 31.4699 13.5356 31.5736 13.594C31.6772 13.6523 31.7681 13.7309 31.8408 13.8249C31.9136 13.919 31.9667 14.0268 31.997 14.1418C32.0274 14.2568 32.0344 14.3767 32.0175 14.4944C32.0007 14.6122 31.9604 14.7253 31.899 14.8272C31.8377 14.9291 31.7565 15.0176 31.6603 15.0876C31.5641 15.1575 31.4548 15.2074 31.339 15.2344C31.2231 15.2613 31.1031 15.2647 30.9859 15.2444C25.2143 14.4249 21.0419 17.6924 21.001 17.7253C20.8433 17.8515 20.6474 17.9202 20.4454 17.92Z" fill="#AA8DD8"/>
<path d="M5.11475 14.2222C4.9762 14.2222 4.83957 14.1899 4.71576 14.1277C4.59194 14.0655 4.48438 13.9752 4.40165 13.8641C4.31893 13.753 4.26332 13.624 4.23928 13.4876C4.21524 13.3511 4.22343 13.2109 4.26319 13.0782C5.27031 9.72445 6.18319 4.37245 5.06142 2.97689C4.93608 2.81867 4.74675 2.66312 4.31297 2.696C3.47919 2.76 3.55831 4.51911 3.55919 4.53689C3.57048 4.65465 3.55815 4.77348 3.52293 4.88642C3.4877 4.99935 3.43028 5.10412 3.35404 5.19458C3.2778 5.28503 3.18427 5.35936 3.07893 5.41321C2.9736 5.46705 2.85857 5.49933 2.7406 5.50814C2.62263 5.51696 2.50408 5.50214 2.39191 5.46454C2.27974 5.42695 2.1762 5.36735 2.08737 5.28923C1.99853 5.2111 1.92618 5.11604 1.87456 5.00959C1.82294 4.90315 1.79309 4.78747 1.78675 4.66934C1.69519 3.44356 2.07653 1.08267 4.17964 0.92356C5.11831 0.852448 5.89786 1.17867 6.44808 1.86312C8.55564 4.48623 6.41608 12.0907 5.9663 13.5893C5.91126 13.7724 5.7987 13.9328 5.64531 14.0468C5.49192 14.1608 5.30587 14.2223 5.11475 14.2222Z" fill="#77B255"/>
<path d="M22.6666 9.77778C23.403 9.77778 23.9999 9.18083 23.9999 8.44445C23.9999 7.70807 23.403 7.11111 22.6666 7.11111C21.9302 7.11111 21.3333 7.70807 21.3333 8.44445C21.3333 9.18083 21.9302 9.77778 22.6666 9.77778Z" fill="#5C913B"/>
<path d="M1.77778 17.7778C2.75962 17.7778 3.55556 16.9818 3.55556 16C3.55556 15.0182 2.75962 14.2222 1.77778 14.2222C0.795938 14.2222 0 15.0182 0 16C0 16.9818 0.795938 17.7778 1.77778 17.7778Z" fill="#9266CC"/>
<path d="M28.889 18.6667C29.6254 18.6667 30.2223 18.0697 30.2223 17.3333C30.2223 16.597 29.6254 16 28.889 16C28.1526 16 27.5557 16.597 27.5557 17.3333C27.5557 18.0697 28.1526 18.6667 28.889 18.6667Z" fill="#5C913B"/>
<path d="M20.889 29.3333C21.6254 29.3333 22.2223 28.7364 22.2223 28C22.2223 27.2636 21.6254 26.6667 20.889 26.6667C20.1526 26.6667 19.5557 27.2636 19.5557 28C19.5557 28.7364 20.1526 29.3333 20.889 29.3333Z" fill="#5C913B"/>
<path d="M24.8889 5.33333C25.8707 5.33333 26.6666 4.53739 26.6666 3.55555C26.6666 2.57371 25.8707 1.77777 24.8889 1.77777C23.907 1.77777 23.1111 2.57371 23.1111 3.55555C23.1111 4.53739 23.907 5.33333 24.8889 5.33333Z" fill="#FFCC4D"/>
<path d="M28.889 8.8889C29.6254 8.8889 30.2223 8.29194 30.2223 7.55556C30.2223 6.81918 29.6254 6.22223 28.889 6.22223C28.1526 6.22223 27.5557 6.81918 27.5557 7.55556C27.5557 8.29194 28.1526 8.8889 28.889 8.8889Z" fill="#FFCC4D"/>
<path d="M26.2222 12.4444C26.9586 12.4444 27.5556 11.8475 27.5556 11.1111C27.5556 10.3747 26.9586 9.77777 26.2222 9.77777C25.4859 9.77777 24.8889 10.3747 24.8889 11.1111C24.8889 11.8475 25.4859 12.4444 26.2222 12.4444Z" fill="#FFCC4D"/>
<path d="M6.66659 22.2222C7.40296 22.2222 7.99992 21.6253 7.99992 20.8889C7.99992 20.1525 7.40296 19.5556 6.66659 19.5556C5.93021 19.5556 5.33325 20.1525 5.33325 20.8889C5.33325 21.6253 5.93021 22.2222 6.66659 22.2222Z" fill="#FFCC4D"/>
</g>
<defs>
<clipPath id="clip0_966_5">
<rect width="32" height="32" fill="white"/>
</clipPath>
</defs>
</svg>
